<svg width="170pt" height="195pt"
 viewBox="0.00 0.00 170.00 194.92" xmlns="http://www.w3.org/2000/svg" xmlns:xlink="http://www.w3.org/1999/xlink">
<g id="graph0" class="graph" transform="scale(1 1) rotate(0) translate(4 190.9242)">
<title>abc</title>
<polygon fill="#ffffff" stroke="transparent" points="-4,4 -4,-190.9242 166,-190.9242 166,4 -4,4"/>
<!-- abc -->
<g id="node1" class="node">
<title>abc</title>
<ellipse fill="none" stroke="#000000" cx="99" cy="-167.7702" rx="30.3483" ry="19.3093"/>
<text text-anchor="middle" x="99" y="-164.5141" font-family="Helvetica Neue" font-size="16.00" fill="#000000">abc</text>
</g>
<!-- ab -->
<g id="node2" class="node">
<title>ab</title>
<ellipse fill="none" stroke="#000000" cx="63" cy="-93.4621" rx="27" ry="19.3093"/>
<text text-anchor="middle" x="63" y="-90.206" font-family="Helvetica Neue" font-size="16.00" fill="#000000">ab</text>
</g>
<!-- abc&#45;&gt;ab -->
<g id="edge1" class="edge">
<title>abc&#45;&gt;ab</title>
<path fill="none" stroke="#000000" d="M90.1011,-149.4019C85.916,-140.7633 80.8401,-130.286 76.2178,-120.7451"/>
<polygon fill="#000000" stroke="#000000" points="79.3064,-119.0926 71.7965,-111.6191 73.0067,-122.1446 79.3064,-119.0926"/>
</g>
<!-- C -->
<g id="node3" class="node">
<title>C</title>
<ellipse fill="none" stroke="#000000" cx="135" cy="-93.4621" rx="27" ry="19.3093"/>
<text text-anchor="middle" x="135" y="-90.206" font-family="Helvetica Neue" font-size="16.00" fill="#000000">C</text>
</g>
<!-- abc&#45;&gt;C -->
<g id="edge2" class="edge">
<title>abc&#45;&gt;C</title>
<path fill="none" stroke="#000000" d="M107.8989,-149.4019C112.084,-140.7633 117.1599,-130.286 121.7822,-120.7451"/>
<polygon fill="#000000" stroke="#000000" points="124.9933,-122.1446 126.2035,-111.6191 118.6936,-119.0926 124.9933,-122.1446"/>
</g>
<!-- A -->
<g id="node4" class="node">
<title>A</title>
<ellipse fill="none" stroke="#000000" cx="27" cy="-19.154" rx="27" ry="19.3093"/>
<text text-anchor="middle" x="27" y="-15.898" font-family="Helvetica Neue" font-size="16.00" fill="#000000">A</text>
</g>
<!-- ab&#45;&gt;A -->
<g id="edge3" class="edge">
<title>ab&#45;&gt;A</title>
<path fill="none" stroke="#000000" d="M54.1011,-75.0938C49.916,-66.4552 44.8401,-55.978 40.2178,-46.4371"/>
<polygon fill="#000000" stroke="#000000" points="43.3064,-44.7845 35.7965,-37.311 37.0067,-47.8365 43.3064,-44.7845"/>
</g>
<!-- B -->
<g id="node5" class="node">
<title>B</title>
<ellipse fill="none" stroke="#000000" cx="99" cy="-19.154" rx="27" ry="19.3093"/>
<text text-anchor="middle" x="99" y="-15.898" font-family="Helvetica Neue" font-size="16.00" fill="#000000">B</text>
</g>
<!-- ab&#45;&gt;B -->
<g id="edge4" class="edge">
<title>ab&#45;&gt;B</title>
<path fill="none" stroke="#000000" d="M71.8989,-75.0938C76.084,-66.4552 81.1599,-55.978 85.7822,-46.4371"/>
<polygon fill="#000000" stroke="#000000" points="88.9933,-47.8365 90.2035,-37.311 82.6936,-44.7845 88.9933,-47.8365"/>
</g>
</g>
</svg>
