<?xml version="1.0" encoding="UTF-8" standalone="no"?>
<!DOCTYPE svg PUBLIC "-//W3C//DTD SVG 1.1//EN"
 "http://www.w3.org/Graphics/SVG/1.1/DTD/svg11.dtd">
<!-- Generated by graphviz version 2.40.1 (20161225.0304)
 -->
<!-- Title: complex Pages: 1 -->
<svg width="199pt" height="476pt"
 viewBox="0.00 0.00 198.52 476.00" xmlns="http://www.w3.org/2000/svg" xmlns:xlink="http://www.w3.org/1999/xlink">
<g id="graph0" class="graph" transform="scale(1 1) rotate(0) translate(4 472)">
<title>complex</title>
<polygon fill="#ffffff" stroke="transparent" points="-4,4 -4,-472 194.5249,-472 194.5249,4 -4,4"/>
<!-- result -->
<g id="node1" class="node">
<title>result</title>
<ellipse fill="none" stroke="#000000" cx="34.5249" cy="-450" rx="34.5497" ry="18"/>
<text text-anchor="middle" x="34.5249" y="-447.151" font-family="Helvetica Neue" font-size="14.00" fill="#000000">result</text>
</g>
<!-- abcd -->
<g id="node2" class="node">
<title>abcd</title>
<ellipse fill="none" stroke="#000000" cx="39.5249" cy="-162" rx="32.9912" ry="18"/>
<text text-anchor="middle" x="39.5249" y="-159.151" font-family="Helvetica Neue" font-size="14.00" fill="#000000">abcd</text>
</g>
<!-- result&#45;&gt;abcd -->
<g id="edge1" class="edge">
<title>result&#45;&gt;abcd</title>
<path fill="none" stroke="#000000" d="M31.1933,-432.0736C29.4162,-421.5982 27.4162,-408.0982 26.5249,-396 21.0566,-321.7761 30.0398,-234.1544 35.6144,-190.1756"/>
<polygon fill="#000000" stroke="#000000" points="39.0902,-190.588 36.9138,-180.2191 32.1491,-189.6821 39.0902,-190.588"/>
</g>
<!-- xy -->
<g id="node3" class="node">
<title>xy</title>
<ellipse fill="none" stroke="#000000" cx="62.5249" cy="-378" rx="27" ry="18"/>
<text text-anchor="middle" x="62.5249" y="-375.151" font-family="Helvetica Neue" font-size="14.00" fill="#000000">xy</text>
</g>
<!-- result&#45;&gt;xy -->
<g id="edge2" class="edge">
<title>result&#45;&gt;xy</title>
<path fill="none" stroke="#000000" d="M41.4462,-432.2022C44.6335,-424.0064 48.485,-414.1024 52.0192,-405.0145"/>
<polygon fill="#000000" stroke="#000000" points="55.3206,-406.1817 55.6831,-395.593 48.7966,-403.6445 55.3206,-406.1817"/>
</g>
<!-- ab -->
<g id="node4" class="node">
<title>ab</title>
<ellipse fill="none" stroke="#000000" cx="91.5249" cy="-90" rx="27" ry="18"/>
<text text-anchor="middle" x="91.5249" y="-87.151" font-family="Helvetica Neue" font-size="14.00" fill="#000000">ab</text>
</g>
<!-- abcd&#45;&gt;ab -->
<g id="edge3" class="edge">
<title>abcd&#45;&gt;ab</title>
<path fill="none" stroke="#000000" d="M51.8481,-144.937C58.3522,-135.9313 66.4526,-124.7154 73.6353,-114.7701"/>
<polygon fill="#000000" stroke="#000000" points="76.6304,-116.601 79.648,-106.4449 70.9556,-112.5025 76.6304,-116.601"/>
</g>
<!-- b -->
<g id="node5" class="node">
<title>b</title>
<ellipse fill="none" stroke="#000000" cx="91.5249" cy="-18" rx="27" ry="18"/>
<text text-anchor="middle" x="91.5249" y="-15.151" font-family="Helvetica Neue" font-size="14.00" fill="#000000">b</text>
</g>
<!-- abcd&#45;&gt;b -->
<g id="edge4" class="edge">
<title>abcd&#45;&gt;b</title>
<path fill="none" stroke="#000000" d="M40.565,-143.8118C42.1279,-125.1938 46.0008,-95.7093 55.5249,-72 59.6828,-61.6492 66.0086,-51.2284 72.2039,-42.3396"/>
<polygon fill="#000000" stroke="#000000" points="75.2061,-44.1628 78.2704,-34.0208 69.5503,-40.0383 75.2061,-44.1628"/>
</g>
<!-- xy&#45;&gt;abcd -->
<g id="edge7" class="edge">
<title>xy&#45;&gt;abcd</title>
<path fill="none" stroke="#000000" d="M60.6035,-359.9555C56.5954,-322.3144 47.3179,-235.1867 42.5196,-190.1246"/>
<polygon fill="#000000" stroke="#000000" points="45.9962,-189.7182 41.457,-180.1451 39.0356,-190.4595 45.9962,-189.7182"/>
</g>
<!-- x -->
<g id="node7" class="node">
<title>x</title>
<ellipse fill="none" stroke="#000000" cx="100.5249" cy="-306" rx="27" ry="18"/>
<text text-anchor="middle" x="100.5249" y="-303.151" font-family="Helvetica Neue" font-size="14.00" fill="#000000">x</text>
</g>
<!-- xy&#45;&gt;x -->
<g id="edge8" class="edge">
<title>xy&#45;&gt;x</title>
<path fill="none" stroke="#000000" d="M71.5303,-360.937C76.0076,-352.4537 81.52,-342.0092 86.5319,-332.513"/>
<polygon fill="#000000" stroke="#000000" points="89.7478,-333.9182 91.3201,-323.4407 83.5571,-330.6509 89.7478,-333.9182"/>
</g>
<!-- ab&#45;&gt;b -->
<g id="edge5" class="edge">
<title>ab&#45;&gt;b</title>
<path fill="none" stroke="#000000" d="M91.5249,-71.8314C91.5249,-64.131 91.5249,-54.9743 91.5249,-46.4166"/>
<polygon fill="#000000" stroke="#000000" points="95.025,-46.4132 91.5249,-36.4133 88.025,-46.4133 95.025,-46.4132"/>
</g>
<!-- y -->
<g id="node6" class="node">
<title>y</title>
<ellipse fill="none" stroke="#000000" cx="163.5249" cy="-18" rx="27" ry="18"/>
<text text-anchor="middle" x="163.5249" y="-15.151" font-family="Helvetica Neue" font-size="14.00" fill="#000000">y</text>
</g>
<!-- ab&#45;&gt;y -->
<g id="edge6" class="edge">
<title>ab&#45;&gt;y</title>
<path fill="none" stroke="#000000" d="M106.7942,-74.7307C116.7219,-64.803 129.8402,-51.6847 140.9612,-40.5637"/>
<polygon fill="#000000" stroke="#000000" points="143.6813,-42.7933 148.2775,-33.2473 138.7315,-37.8436 143.6813,-42.7933"/>
</g>
<!-- cd -->
<g id="node8" class="node">
<title>cd</title>
<ellipse fill="none" stroke="#000000" cx="163.5249" cy="-90" rx="27" ry="18"/>
<text text-anchor="middle" x="163.5249" y="-87.151" font-family="Helvetica Neue" font-size="14.00" fill="#000000">cd</text>
</g>
<!-- x&#45;&gt;cd -->
<g id="edge9" class="edge">
<title>x&#45;&gt;cd</title>
<path fill="none" stroke="#000000" d="M113.8318,-290.0001C121.6552,-279.7555 131.0555,-265.8307 136.5249,-252 154.141,-207.4527 160.2639,-151.6024 162.3918,-118.4716"/>
<polygon fill="#000000" stroke="#000000" points="165.9048,-118.3367 162.9711,-108.1561 158.9158,-117.9441 165.9048,-118.3367"/>
</g>
<!-- d -->
<g id="node9" class="node">
<title>d</title>
<ellipse fill="none" stroke="#000000" cx="100.5249" cy="-234" rx="27" ry="18"/>
<text text-anchor="middle" x="100.5249" y="-231.151" font-family="Helvetica Neue" font-size="14.00" fill="#000000">d</text>
</g>
<!-- x&#45;&gt;d -->
<g id="edge10" class="edge">
<title>x&#45;&gt;d</title>
<path fill="none" stroke="#000000" d="M100.5249,-287.8314C100.5249,-280.131 100.5249,-270.9743 100.5249,-262.4166"/>
<polygon fill="#000000" stroke="#000000" points="104.025,-262.4132 100.5249,-252.4133 97.025,-262.4133 104.025,-262.4132"/>
</g>
<!-- cd&#45;&gt;b -->
<g id="edge11" class="edge">
<title>cd&#45;&gt;b</title>
<path fill="none" stroke="#000000" d="M148.2555,-74.7307C138.3279,-64.803 125.2096,-51.6847 114.0885,-40.5637"/>
<polygon fill="#000000" stroke="#000000" points="116.3182,-37.8436 106.7722,-33.2473 111.3684,-42.7933 116.3182,-37.8436"/>
</g>
<!-- cd&#45;&gt;y -->
<g id="edge12" class="edge">
<title>cd&#45;&gt;y</title>
<path fill="none" stroke="#000000" d="M163.5249,-71.8314C163.5249,-64.131 163.5249,-54.9743 163.5249,-46.4166"/>
<polygon fill="#000000" stroke="#000000" points="167.025,-46.4132 163.5249,-36.4133 160.025,-46.4133 167.025,-46.4132"/>
</g>
<!-- d&#45;&gt;abcd -->
<g id="edge13" class="edge">
<title>d&#45;&gt;abcd</title>
<path fill="none" stroke="#000000" d="M86.987,-218.0209C79.0435,-208.6449 68.8492,-196.6123 59.9459,-186.1035"/>
<polygon fill="#000000" stroke="#000000" points="62.5825,-183.801 53.4478,-178.4336 57.2416,-188.326 62.5825,-183.801"/>
</g>
<!-- d&#45;&gt;ab -->
<g id="edge14" class="edge">
<title>d&#45;&gt;ab</title>
<path fill="none" stroke="#000000" d="M99.385,-215.7623C97.8499,-191.201 95.1028,-147.2474 93.297,-118.3541"/>
<polygon fill="#000000" stroke="#000000" points="96.7725,-117.8518 92.6555,-108.0896 89.7861,-118.2885 96.7725,-117.8518"/>
</g>
</g>
</svg>
