<svg width="200pt" height="492pt"
 viewBox="0.00 0.00 199.98 492.16" xmlns="http://www.w3.org/2000/svg" xmlns:xlink="http://www.w3.org/1999/xlink">
<g id="graph0" class="graph" transform="scale(1 1) rotate(0) translate(4 488.1564)">
<title>complex</title>
<polygon fill="#ffffff" stroke="transparent" points="-4,4 -4,-488.1564 195.9757,-488.1564 195.9757,4 -4,4"/>
<!-- result -->
<g id="node1" class="node">
<title>result</title>
<ellipse fill="none" stroke="#000000" cx="38.9757" cy="-465.0024" rx="38.9515" ry="19.3093"/>
<text text-anchor="middle" x="38.9757" y="-461.7464" font-family="Helvetica Neue" font-size="16.00" fill="#000000">result</text>
</g>
<!-- abcd -->
<g id="node2" class="node">
<title>abcd</title>
<ellipse fill="none" stroke="#000000" cx="39.9757" cy="-167.7702" rx="36.7658" ry="19.3093"/>
<text text-anchor="middle" x="39.9757" y="-164.5141" font-family="Helvetica Neue" font-size="16.00" fill="#000000">abcd</text>
</g>
<!-- result&#45;&gt;abcd -->
<g id="edge1" class="edge">
<title>result&#45;&gt;abcd</title>
<path fill="none" stroke="#000000" d="M35.4769,-445.6778C33.743,-435.1291 31.8391,-421.815 30.9757,-409.8484 25.4423,-333.1509 32.4041,-242.5235 36.8351,-196.9892"/>
<polygon fill="#000000" stroke="#000000" points="40.3277,-197.2374 37.8442,-186.9377 33.3627,-196.538 40.3277,-197.2374"/>
</g>
<!-- xy -->
<g id="node3" class="node">
<title>xy</title>
<ellipse fill="none" stroke="#000000" cx="66.9757" cy="-390.6943" rx="27" ry="19.3093"/>
<text text-anchor="middle" x="66.9757" y="-387.4383" font-family="Helvetica Neue" font-size="16.00" fill="#000000">xy</text>
</g>
<!-- result&#45;&gt;xy -->
<g id="edge2" class="edge">
<title>result&#45;&gt;xy</title>
<path fill="none" stroke="#000000" d="M46.1864,-445.8662C49.3041,-437.5924 53.0144,-427.7457 56.4317,-418.6766"/>
<polygon fill="#000000" stroke="#000000" points="59.732,-419.8441 59.9829,-409.2522 53.1816,-417.3758 59.732,-419.8441"/>
</g>
<!-- ab -->
<g id="node4" class="node">
<title>ab</title>
<ellipse fill="none" stroke="#000000" cx="92.9757" cy="-93.4621" rx="27" ry="19.3093"/>
<text text-anchor="middle" x="92.9757" y="-90.206" font-family="Helvetica Neue" font-size="16.00" fill="#000000">ab</text>
</g>
<!-- abcd&#45;&gt;ab -->
<g id="edge3" class="edge">
<title>abcd&#45;&gt;ab</title>
<path fill="none" stroke="#000000" d="M52.8055,-149.7822C59.4114,-140.5206 67.5778,-129.0709 74.8188,-118.9188"/>
<polygon fill="#000000" stroke="#000000" points="77.6716,-120.9464 80.629,-110.7727 71.9727,-116.8816 77.6716,-120.9464"/>
</g>
<!-- b -->
<g id="node5" class="node">
<title>b</title>
<ellipse fill="none" stroke="#000000" cx="92.9757" cy="-19.154" rx="27" ry="19.3093"/>
<text text-anchor="middle" x="92.9757" y="-15.898" font-family="Helvetica Neue" font-size="16.00" fill="#000000">b</text>
</g>
<!-- abcd&#45;&gt;b -->
<g id="edge4" class="edge">
<title>abcd&#45;&gt;b</title>
<path fill="none" stroke="#000000" d="M41.2347,-148.54C43.0108,-129.2022 47.21,-98.8221 56.9757,-74.3081 61.1447,-63.843 67.4363,-53.2646 73.5995,-44.2098"/>
<polygon fill="#000000" stroke="#000000" points="76.4587,-46.2284 79.3956,-36.0488 70.7516,-42.1751 76.4587,-46.2284"/>
</g>
<!-- xy&#45;&gt;abcd -->
<g id="edge7" class="edge">
<title>xy&#45;&gt;abcd</title>
<path fill="none" stroke="#000000" d="M64.6269,-371.3013C59.8777,-332.0896 49.1105,-243.1906 43.5095,-196.9462"/>
<polygon fill="#000000" stroke="#000000" points="46.977,-196.4663 42.2999,-186.9597 40.0278,-197.308 46.977,-196.4663"/>
</g>
<!-- x -->
<g id="node7" class="node">
<title>x</title>
<ellipse fill="none" stroke="#000000" cx="104.9757" cy="-316.3863" rx="27" ry="19.3093"/>
<text text-anchor="middle" x="104.9757" y="-313.1302" font-family="Helvetica Neue" font-size="16.00" fill="#000000">x</text>
</g>
<!-- xy&#45;&gt;x -->
<g id="edge8" class="edge">
<title>xy&#45;&gt;x</title>
<path fill="none" stroke="#000000" d="M76.369,-372.3261C80.7866,-363.6875 86.1445,-353.2102 91.0236,-343.6693"/>
<polygon fill="#000000" stroke="#000000" points="94.2536,-345.0402 95.6905,-334.5433 88.0212,-341.8531 94.2536,-345.0402"/>
</g>
<!-- ab&#45;&gt;b -->
<g id="edge5" class="edge">
<title>ab&#45;&gt;b</title>
<path fill="none" stroke="#000000" d="M92.9757,-73.9385C92.9757,-66.2589 92.9757,-57.2711 92.9757,-48.8221"/>
<polygon fill="#000000" stroke="#000000" points="96.4758,-48.5472 92.9757,-38.5472 89.4758,-48.5472 96.4758,-48.5472"/>
</g>
<!-- y -->
<g id="node6" class="node">
<title>y</title>
<ellipse fill="none" stroke="#000000" cx="164.9757" cy="-19.154" rx="27" ry="19.3093"/>
<text text-anchor="middle" x="164.9757" y="-15.898" font-family="Helvetica Neue" font-size="16.00" fill="#000000">y</text>
</g>
<!-- ab&#45;&gt;y -->
<g id="edge6" class="edge">
<title>ab&#45;&gt;y</title>
<path fill="none" stroke="#000000" d="M108.5987,-77.3384C118.4783,-67.142 131.4108,-53.7949 142.3971,-42.4564"/>
<polygon fill="#000000" stroke="#000000" points="145.1856,-44.6083 149.6306,-34.991 140.1583,-39.7372 145.1856,-44.6083"/>
</g>
<!-- cd -->
<g id="node8" class="node">
<title>cd</title>
<ellipse fill="none" stroke="#000000" cx="164.9757" cy="-93.4621" rx="27" ry="19.3093"/>
<text text-anchor="middle" x="164.9757" y="-90.206" font-family="Helvetica Neue" font-size="16.00" fill="#000000">cd</text>
</g>
<!-- x&#45;&gt;cd -->
<g id="edge9" class="edge">
<title>x&#45;&gt;cd</title>
<path fill="none" stroke="#000000" d="M118.7464,-299.5654C126.535,-289.1488 135.7366,-275.1434 140.9757,-261.2322 158.3806,-215.0182 163.2797,-157.2894 164.5897,-123.008"/>
<polygon fill="#000000" stroke="#000000" points="168.0961,-122.8472 164.9003,-112.7459 161.0993,-122.6354 168.0961,-122.8472"/>
</g>
<!-- d -->
<g id="node9" class="node">
<title>d</title>
<ellipse fill="none" stroke="#000000" cx="104.9757" cy="-242.0782" rx="27" ry="19.3093"/>
<text text-anchor="middle" x="104.9757" y="-238.8222" font-family="Helvetica Neue" font-size="16.00" fill="#000000">d</text>
</g>
<!-- x&#45;&gt;d -->
<g id="edge10" class="edge">
<title>x&#45;&gt;d</title>
<path fill="none" stroke="#000000" d="M104.9757,-296.8627C104.9757,-289.1831 104.9757,-280.1953 104.9757,-271.7463"/>
<polygon fill="#000000" stroke="#000000" points="108.4758,-271.4714 104.9757,-261.4714 101.4758,-271.4714 108.4758,-271.4714"/>
</g>
<!-- cd&#45;&gt;b -->
<g id="edge11" class="edge">
<title>cd&#45;&gt;b</title>
<path fill="none" stroke="#000000" d="M149.3528,-77.3384C139.4732,-67.142 126.5406,-53.7949 115.5543,-42.4564"/>
<polygon fill="#000000" stroke="#000000" points="117.7931,-39.7372 108.3208,-34.991 112.7659,-44.6083 117.7931,-39.7372"/>
</g>
<!-- cd&#45;&gt;y -->
<g id="edge12" class="edge">
<title>cd&#45;&gt;y</title>
<path fill="none" stroke="#000000" d="M164.9757,-73.9385C164.9757,-66.2589 164.9757,-57.2711 164.9757,-48.8221"/>
<polygon fill="#000000" stroke="#000000" points="168.4758,-48.5472 164.9757,-38.5472 161.4758,-48.5472 168.4758,-48.5472"/>
</g>
<!-- d&#45;&gt;abcd -->
<g id="edge13" class="edge">
<title>d&#45;&gt;abcd</title>
<path fill="none" stroke="#000000" d="M90.5501,-225.5869C82.1231,-215.9531 71.3189,-203.6017 61.8617,-192.7902"/>
<polygon fill="#000000" stroke="#000000" points="64.485,-190.4732 55.2667,-185.2508 59.2163,-195.0819 64.485,-190.4732"/>
</g>
<!-- d&#45;&gt;ab -->
<g id="edge14" class="edge">
<title>d&#45;&gt;ab</title>
<path fill="none" stroke="#000000" d="M103.4315,-222.9535C101.3906,-197.6781 97.7741,-152.8884 95.3755,-123.1829"/>
<polygon fill="#000000" stroke="#000000" points="98.8457,-122.6712 94.5521,-112.9853 91.8684,-123.2346 98.8457,-122.6712"/>
</g>
</g>
</svg>
