<?xml version="1.0" encoding="UTF-8" standalone="no"?>
<!DOCTYPE svg PUBLIC "-//W3C//DTD SVG 1.1//EN"
 "http://www.w3.org/Graphics/SVG/1.1/DTD/svg11.dtd">
<!-- Generated by graphviz version 2.40.1 (20161225.0304)
 -->
<!-- Title: simple Pages: 1 -->
<svg width="353pt" height="260pt"
 viewBox="0.00 0.00 353.00 260.00" xmlns="http://www.w3.org/2000/svg" xmlns:xlink="http://www.w3.org/1999/xlink">
<g id="graph0" class="graph" transform="scale(1 1) rotate(0) translate(4 256)">
<title>simple</title>
<polygon fill="#ffffff" stroke="transparent" points="-4,4 -4,-256 349,-256 349,4 -4,4"/>
<!-- ab -->
<g id="node1" class="node">
<title>ab</title>
<ellipse fill="none" stroke="#000000" cx="99" cy="-90" rx="27" ry="18"/>
<text text-anchor="middle" x="99" y="-87.151" font-family="Helvetica Neue" font-size="14.00" fill="#000000">ab</text>
</g>
<!-- a -->
<g id="node2" class="node">
<title>a</title>
<ellipse fill="none" stroke="#000000" cx="27" cy="-18" rx="27" ry="18"/>
<text text-anchor="middle" x="27" y="-15.151" font-family="Helvetica Neue" font-size="14.00" fill="#000000">a</text>
</g>
<!-- ab&#45;&gt;a -->
<g id="edge1" class="edge">
<title>ab&#45;&gt;a</title>
<path fill="none" stroke="#000000" d="M83.7307,-74.7307C73.803,-64.803 60.6847,-51.6847 49.5637,-40.5637"/>
<polygon fill="#000000" stroke="#000000" points="51.7933,-37.8436 42.2473,-33.2473 46.8436,-42.7933 51.7933,-37.8436"/>
</g>
<!-- b -->
<g id="node3" class="node">
<title>b</title>
<ellipse fill="none" stroke="#000000" cx="99" cy="-18" rx="27" ry="18"/>
<text text-anchor="middle" x="99" y="-15.151" font-family="Helvetica Neue" font-size="14.00" fill="#000000">b</text>
</g>
<!-- ab&#45;&gt;b -->
<g id="edge2" class="edge">
<title>ab&#45;&gt;b</title>
<path fill="none" stroke="#000000" d="M99,-71.8314C99,-64.131 99,-54.9743 99,-46.4166"/>
<polygon fill="#000000" stroke="#000000" points="102.5001,-46.4132 99,-36.4133 95.5001,-46.4133 102.5001,-46.4132"/>
</g>
<!-- cd -->
<g id="node4" class="node">
<title>cd</title>
<ellipse fill="none" stroke="#000000" cx="171" cy="-90" rx="27" ry="18"/>
<text text-anchor="middle" x="171" y="-87.151" font-family="Helvetica Neue" font-size="14.00" fill="#000000">cd</text>
</g>
<!-- c -->
<g id="node5" class="node">
<title>c</title>
<ellipse fill="none" stroke="#000000" cx="171" cy="-18" rx="27" ry="18"/>
<text text-anchor="middle" x="171" y="-15.151" font-family="Helvetica Neue" font-size="14.00" fill="#000000">c</text>
</g>
<!-- cd&#45;&gt;c -->
<g id="edge3" class="edge">
<title>cd&#45;&gt;c</title>
<path fill="none" stroke="#000000" d="M171,-71.8314C171,-64.131 171,-54.9743 171,-46.4166"/>
<polygon fill="#000000" stroke="#000000" points="174.5001,-46.4132 171,-36.4133 167.5001,-46.4133 174.5001,-46.4132"/>
</g>
<!-- d -->
<g id="node6" class="node">
<title>d</title>
<ellipse fill="none" stroke="#000000" cx="243" cy="-18" rx="27" ry="18"/>
<text text-anchor="middle" x="243" y="-15.151" font-family="Helvetica Neue" font-size="14.00" fill="#000000">d</text>
</g>
<!-- cd&#45;&gt;d -->
<g id="edge4" class="edge">
<title>cd&#45;&gt;d</title>
<path fill="none" stroke="#000000" d="M186.2693,-74.7307C196.197,-64.803 209.3153,-51.6847 220.4363,-40.5637"/>
<polygon fill="#000000" stroke="#000000" points="223.1564,-42.7933 227.7527,-33.2473 218.2067,-37.8436 223.1564,-42.7933"/>
</g>
<!-- abcd -->
<g id="node7" class="node">
<title>abcd</title>
<ellipse fill="none" stroke="#000000" cx="169" cy="-162" rx="32.9912" ry="18"/>
<text text-anchor="middle" x="169" y="-159.151" font-family="Helvetica Neue" font-size="14.00" fill="#000000">abcd</text>
</g>
<!-- abcd&#45;&gt;ab -->
<g id="edge5" class="edge">
<title>abcd&#45;&gt;ab</title>
<path fill="none" stroke="#000000" d="M153.4647,-146.0209C144.0006,-136.2863 131.7522,-123.688 121.2683,-112.9046"/>
<polygon fill="#000000" stroke="#000000" points="123.4917,-110.1705 114.0114,-105.4403 118.4727,-115.05 123.4917,-110.1705"/>
</g>
<!-- abcd&#45;&gt;cd -->
<g id="edge6" class="edge">
<title>abcd&#45;&gt;cd</title>
<path fill="none" stroke="#000000" d="M169.5047,-143.8314C169.7186,-136.131 169.9729,-126.9743 170.2106,-118.4166"/>
<polygon fill="#000000" stroke="#000000" points="173.7094,-118.5066 170.4885,-108.4133 166.7121,-118.3122 173.7094,-118.5066"/>
</g>
<!-- xy -->
<g id="node8" class="node">
<title>xy</title>
<ellipse fill="none" stroke="#000000" cx="247" cy="-162" rx="27" ry="18"/>
<text text-anchor="middle" x="247" y="-159.151" font-family="Helvetica Neue" font-size="14.00" fill="#000000">xy</text>
</g>
<!-- x -->
<g id="node9" class="node">
<title>x</title>
<ellipse fill="none" stroke="#000000" cx="246" cy="-90" rx="27" ry="18"/>
<text text-anchor="middle" x="246" y="-87.151" font-family="Helvetica Neue" font-size="14.00" fill="#000000">x</text>
</g>
<!-- xy&#45;&gt;x -->
<g id="edge7" class="edge">
<title>xy&#45;&gt;x</title>
<path fill="none" stroke="#000000" d="M246.7477,-143.8314C246.6407,-136.131 246.5135,-126.9743 246.3947,-118.4166"/>
<polygon fill="#000000" stroke="#000000" points="249.8944,-118.3637 246.2557,-108.4133 242.8951,-118.4609 249.8944,-118.3637"/>
</g>
<!-- y -->
<g id="node10" class="node">
<title>y</title>
<ellipse fill="none" stroke="#000000" cx="318" cy="-90" rx="27" ry="18"/>
<text text-anchor="middle" x="318" y="-87.151" font-family="Helvetica Neue" font-size="14.00" fill="#000000">y</text>
</g>
<!-- xy&#45;&gt;y -->
<g id="edge8" class="edge">
<title>xy&#45;&gt;y</title>
<path fill="none" stroke="#000000" d="M262.0573,-146.7307C271.847,-136.803 284.7831,-123.6847 295.7497,-112.5637"/>
<polygon fill="#000000" stroke="#000000" points="298.4351,-114.8252 302.9644,-105.2473 293.4508,-109.9102 298.4351,-114.8252"/>
</g>
<!-- result -->
<g id="node11" class="node">
<title>result</title>
<ellipse fill="none" stroke="#000000" cx="208" cy="-234" rx="34.5497" ry="18"/>
<text text-anchor="middle" x="208" y="-231.151" font-family="Helvetica Neue" font-size="14.00" fill="#000000">result</text>
</g>
<!-- result&#45;&gt;abcd -->
<g id="edge9" class="edge">
<title>result&#45;&gt;abcd</title>
<path fill="none" stroke="#000000" d="M198.5592,-216.5708C193.9604,-208.0807 188.3336,-197.6929 183.2282,-188.2674"/>
<polygon fill="#000000" stroke="#000000" points="186.1943,-186.3946 178.3539,-179.2687 180.0392,-189.7286 186.1943,-186.3946"/>
</g>
<!-- result&#45;&gt;xy -->
<g id="edge10" class="edge">
<title>result&#45;&gt;xy</title>
<path fill="none" stroke="#000000" d="M217.4408,-216.5708C222.0396,-208.0807 227.6664,-197.6929 232.7718,-188.2674"/>
<polygon fill="#000000" stroke="#000000" points="235.9608,-189.7286 237.6461,-179.2687 229.8057,-186.3946 235.9608,-189.7286"/>
</g>
</g>
</svg>
