<svg width="355pt" height="269pt"
 viewBox="0.00 0.00 355.00 269.23" xmlns="http://www.w3.org/2000/svg" xmlns:xlink="http://www.w3.org/1999/xlink">
<g id="graph0" class="graph" transform="scale(1 1) rotate(0) translate(4 265.2322)">
<title>simple</title>
<polygon fill="#ffffff" stroke="transparent" points="-4,4 -4,-265.2322 351,-265.2322 351,4 -4,4"/>
<!-- ab -->
<g id="node1" class="node">
<title>ab</title>
<ellipse fill="none" stroke="#000000" cx="99" cy="-93.4621" rx="27" ry="19.3093"/>
<text text-anchor="middle" x="99" y="-90.206" font-family="Helvetica Neue" font-size="16.00" fill="#000000">ab</text>
</g>
<!-- a -->
<g id="node2" class="node">
<title>a</title>
<ellipse fill="none" stroke="#000000" cx="27" cy="-19.154" rx="27" ry="19.3093"/>
<text text-anchor="middle" x="27" y="-15.898" font-family="Helvetica Neue" font-size="16.00" fill="#000000">a</text>
</g>
<!-- ab&#45;&gt;a -->
<g id="edge1" class="edge">
<title>ab&#45;&gt;a</title>
<path fill="none" stroke="#000000" d="M83.3771,-77.3384C73.4975,-67.142 60.5649,-53.7949 49.5786,-42.4564"/>
<polygon fill="#000000" stroke="#000000" points="51.8174,-39.7372 42.3451,-34.991 46.7902,-44.6083 51.8174,-39.7372"/>
</g>
<!-- b -->
<g id="node3" class="node">
<title>b</title>
<ellipse fill="none" stroke="#000000" cx="99" cy="-19.154" rx="27" ry="19.3093"/>
<text text-anchor="middle" x="99" y="-15.898" font-family="Helvetica Neue" font-size="16.00" fill="#000000">b</text>
</g>
<!-- ab&#45;&gt;b -->
<g id="edge2" class="edge">
<title>ab&#45;&gt;b</title>
<path fill="none" stroke="#000000" d="M99,-73.9385C99,-66.2589 99,-57.2711 99,-48.8221"/>
<polygon fill="#000000" stroke="#000000" points="102.5001,-48.5472 99,-38.5472 95.5001,-48.5472 102.5001,-48.5472"/>
</g>
<!-- cd -->
<g id="node4" class="node">
<title>cd</title>
<ellipse fill="none" stroke="#000000" cx="171" cy="-93.4621" rx="27" ry="19.3093"/>
<text text-anchor="middle" x="171" y="-90.206" font-family="Helvetica Neue" font-size="16.00" fill="#000000">cd</text>
</g>
<!-- c -->
<g id="node5" class="node">
<title>c</title>
<ellipse fill="none" stroke="#000000" cx="171" cy="-19.154" rx="27" ry="19.3093"/>
<text text-anchor="middle" x="171" y="-15.898" font-family="Helvetica Neue" font-size="16.00" fill="#000000">c</text>
</g>
<!-- cd&#45;&gt;c -->
<g id="edge3" class="edge">
<title>cd&#45;&gt;c</title>
<path fill="none" stroke="#000000" d="M171,-73.9385C171,-66.2589 171,-57.2711 171,-48.8221"/>
<polygon fill="#000000" stroke="#000000" points="174.5001,-48.5472 171,-38.5472 167.5001,-48.5472 174.5001,-48.5472"/>
</g>
<!-- d -->
<g id="node6" class="node">
<title>d</title>
<ellipse fill="none" stroke="#000000" cx="243" cy="-19.154" rx="27" ry="19.3093"/>
<text text-anchor="middle" x="243" y="-15.898" font-family="Helvetica Neue" font-size="16.00" fill="#000000">d</text>
</g>
<!-- cd&#45;&gt;d -->
<g id="edge4" class="edge">
<title>cd&#45;&gt;d</title>
<path fill="none" stroke="#000000" d="M186.6229,-77.3384C196.5025,-67.142 209.4351,-53.7949 220.4214,-42.4564"/>
<polygon fill="#000000" stroke="#000000" points="223.2098,-44.6083 227.6549,-34.991 218.1826,-39.7372 223.2098,-44.6083"/>
</g>
<!-- abcd -->
<g id="node7" class="node">
<title>abcd</title>
<ellipse fill="none" stroke="#000000" cx="168" cy="-167.7702" rx="36.7658" ry="19.3093"/>
<text text-anchor="middle" x="168" y="-164.5141" font-family="Helvetica Neue" font-size="16.00" fill="#000000">abcd</text>
</g>
<!-- abcd&#45;&gt;ab -->
<g id="edge5" class="edge">
<title>abcd&#45;&gt;ab</title>
<path fill="none" stroke="#000000" d="M151.648,-150.1602C142.4764,-140.2831 130.9127,-127.8298 120.9605,-117.112"/>
<polygon fill="#000000" stroke="#000000" points="123.4251,-114.6225 114.0557,-109.6761 118.2955,-119.3856 123.4251,-114.6225"/>
</g>
<!-- abcd&#45;&gt;cd -->
<g id="edge6" class="edge">
<title>abcd&#45;&gt;cd</title>
<path fill="none" stroke="#000000" d="M168.7882,-148.2466C169.1017,-140.4817 169.4692,-131.3793 169.8136,-122.8487"/>
<polygon fill="#000000" stroke="#000000" points="173.3107,-122.9884 170.217,-112.8553 166.3164,-122.7059 173.3107,-122.9884"/>
</g>
<!-- xy -->
<g id="node8" class="node">
<title>xy</title>
<ellipse fill="none" stroke="#000000" cx="250" cy="-167.7702" rx="27" ry="19.3093"/>
<text text-anchor="middle" x="250" y="-164.5141" font-family="Helvetica Neue" font-size="16.00" fill="#000000">xy</text>
</g>
<!-- x -->
<g id="node9" class="node">
<title>x</title>
<ellipse fill="none" stroke="#000000" cx="248" cy="-93.4621" rx="27" ry="19.3093"/>
<text text-anchor="middle" x="248" y="-90.206" font-family="Helvetica Neue" font-size="16.00" fill="#000000">x</text>
</g>
<!-- xy&#45;&gt;x -->
<g id="edge7" class="edge">
<title>xy&#45;&gt;x</title>
<path fill="none" stroke="#000000" d="M249.4745,-148.2466C249.2678,-140.567 249.0259,-131.5792 248.7985,-123.1301"/>
<polygon fill="#000000" stroke="#000000" points="252.2898,-122.7574 248.522,-112.8553 245.2924,-122.9459 252.2898,-122.7574"/>
</g>
<!-- y -->
<g id="node10" class="node">
<title>y</title>
<ellipse fill="none" stroke="#000000" cx="320" cy="-93.4621" rx="27" ry="19.3093"/>
<text text-anchor="middle" x="320" y="-90.206" font-family="Helvetica Neue" font-size="16.00" fill="#000000">y</text>
</g>
<!-- xy&#45;&gt;y -->
<g id="edge8" class="edge">
<title>xy&#45;&gt;y</title>
<path fill="none" stroke="#000000" d="M265.189,-151.6464C274.7288,-141.5195 287.1965,-128.2844 297.8303,-116.9962"/>
<polygon fill="#000000" stroke="#000000" points="300.5314,-119.2332 304.8407,-109.5544 295.4361,-114.4334 300.5314,-119.2332"/>
</g>
<!-- result -->
<g id="node11" class="node">
<title>result</title>
<ellipse fill="none" stroke="#000000" cx="209" cy="-242.0782" rx="38.9515" ry="19.3093"/>
<text text-anchor="middle" x="209" y="-238.8222" font-family="Helvetica Neue" font-size="16.00" fill="#000000">result</text>
</g>
<!-- result&#45;&gt;abcd -->
<g id="edge9" class="edge">
<title>result&#45;&gt;abcd</title>
<path fill="none" stroke="#000000" d="M198.654,-223.3272C193.9569,-214.8143 188.3084,-204.5769 183.1468,-195.222"/>
<polygon fill="#000000" stroke="#000000" points="186.0962,-193.3226 178.2007,-186.2578 179.9673,-196.7043 186.0962,-193.3226"/>
</g>
<!-- result&#45;&gt;xy -->
<g id="edge10" class="edge">
<title>result&#45;&gt;xy</title>
<path fill="none" stroke="#000000" d="M219.346,-223.3272C224.1143,-214.6853 229.863,-204.2663 235.0875,-194.7974"/>
<polygon fill="#000000" stroke="#000000" points="238.315,-196.1927 240.0816,-185.7462 232.1861,-192.811 238.315,-196.1927"/>
</g>
</g>
</svg>
