<svg width="232pt" height="269pt"
 viewBox="0.00 0.00 231.92 269.23" xmlns="http://www.w3.org/2000/svg" xmlns:xlink="http://www.w3.org/1999/xlink">
<g id="graph0" class="graph" transform="scale(1 1) rotate(0) translate(4 265.2322)">
<title>Response</title>
<polygon fill="#ffffff" stroke="transparent" points="-4,4 -4,-265.2322 227.9159,-265.2322 227.9159,4 -4,4"/>
<!-- response -->
<g id="node1" class="node req">
<title>response</title>
<ellipse fill="none" stroke="#000000" cx="121.4228" cy="-242.0782" rx="57.6718" ry="19.3093"/>
<text text-anchor="middle" x="121.4228" y="-238.8222" font-family="Helvetica Neue" font-size="16.00" fill="#000000">response</text>
</g>
<!-- user -->
<g id="node2" class="node req">
<title>user</title>
<ellipse fill="none" stroke="#000000" cx="121.4228" cy="-167.7702" rx="33.2081" ry="19.3093"/>
<text text-anchor="middle" x="121.4228" y="-164.5141" font-family="Helvetica Neue" font-size="16.00" fill="#000000">user</text>
</g>
<!-- response&#45;&gt;user -->
<g id="edge1" class="edge req">
<title>response&#45;&gt;user</title>
<path fill="none" stroke="#000000" d="M121.4228,-222.5546C121.4228,-214.875 121.4228,-205.8872 121.4228,-197.4382"/>
<polygon fill="#000000" stroke="#000000" points="124.9229,-197.1633 121.4228,-187.1633 117.9229,-197.1634 124.9229,-197.1633"/>
</g>
<!-- db -->
<g id="node3" class="node dep">
<title>db</title>
<ellipse fill="none" stroke="#000000" cx="70.4228" cy="-93.4621" rx="27" ry="19.3093"/>
<text text-anchor="middle" x="70.4228" y="-90.206" font-family="Helvetica Neue" font-size="16.00" fill="#000000">db</text>
</g>
<!-- user&#45;&gt;db -->
<g id="edge2" class="edge dep">
<title>user&#45;&gt;db</title>
<path fill="none" stroke="#000000" d="M109.0771,-149.7822C102.7841,-140.6132 95.0193,-129.2997 88.1038,-119.2237"/>
<polygon fill="#000000" stroke="#000000" points="90.8481,-117.037 82.3036,-110.7727 85.0767,-120.9982 90.8481,-117.037"/>
</g>
<!-- cookies -->
<g id="node4" class="node req">
<title>cookies</title>
<ellipse fill="none" stroke="#000000" cx="173.4228" cy="-93.4621" rx="50.4862" ry="19.3093"/>
<text text-anchor="middle" x="173.4228" y="-90.206" font-family="Helvetica Neue" font-size="16.00" fill="#000000">cookies</text>
</g>
<!-- user&#45;&gt;cookies -->
<g id="edge3" class="edge req">
<title>user&#45;&gt;cookies</title>
<path fill="none" stroke="#000000" d="M134.0105,-149.7822C140.1944,-140.9454 147.7723,-130.1167 154.6253,-120.3237"/>
<polygon fill="#000000" stroke="#000000" points="157.542,-122.2602 160.4079,-112.0604 151.8068,-118.2468 157.542,-122.2602"/>
</g>
<!-- connString -->
<g id="node6" class="node">
<title>connString</title>
<ellipse fill="none" stroke="#000000" cx="66.4228" cy="-19.154" rx="66.3457" ry="19.3093"/>
<text text-anchor="middle" x="66.4228" y="-15.898" font-family="Helvetica Neue" font-size="16.00" fill="#000000">connString</text>
</g>
<!-- db&#45;&gt;connString -->
<g id="edge5" class="edge">
<title>db&#45;&gt;connString</title>
<path fill="none" stroke="#000000" d="M69.3718,-73.9385C68.9538,-66.1736 68.4639,-57.0712 68.0047,-48.5406"/>
<polygon fill="#000000" stroke="#000000" points="71.4993,-48.3446 67.4667,-38.5472 64.5094,-48.7209 71.4993,-48.3446"/>
</g>
<!-- req -->
<g id="node5" class="node req">
<title>req</title>
<ellipse fill="none" stroke="#000000" cx="178.4228" cy="-19.154" rx="27.825" ry="19.3093"/>
<text text-anchor="middle" x="178.4228" y="-15.898" font-family="Helvetica Neue" font-size="16.00" fill="#000000">req</text>
</g>
<!-- cookies&#45;&gt;req -->
<g id="edge4" class="edge req">
<title>cookies&#45;&gt;req</title>
<path fill="none" stroke="#000000" d="M174.7365,-73.9385C175.2631,-66.1125 175.8811,-56.9278 176.459,-48.3392"/>
<polygon fill="#000000" stroke="#000000" points="179.9558,-48.5026 177.1352,-38.2902 172.9716,-48.0326 179.9558,-48.5026"/>
</g>
</g>
</svg>
