<svg width="148pt" height="269pt"
 viewBox="0.00 0.00 147.57 269.23" xmlns="http://www.w3.org/2000/svg" xmlns:xlink="http://www.w3.org/1999/xlink">
<g id="graph0" class="graph" transform="scale(1 1) rotate(0) translate(4 265.2322)">
<title>webMain</title>
<polygon fill="#ffffff" stroke="transparent" points="-4,4 -4,-265.2322 143.5659,-265.2322 143.5659,4 -4,4"/>
<!-- handler -->
<g id="node1" class="node">
<title>handler</title>
<ellipse fill="none" stroke="#000000" cx="69.783" cy="-167.7702" rx="69.5666" ry="19.3093"/>
<text text-anchor="middle" x="69.783" y="-164.5141" font-family="Helvetica Neue" font-size="16.00" fill="#000000">req&#45;handler</text>
</g>
<!-- db -->
<g id="node3" class="node">
<title>db</title>
<ellipse fill="none" stroke="#000000" cx="69.783" cy="-93.4621" rx="27" ry="19.3093"/>
<text text-anchor="middle" x="69.783" y="-90.206" font-family="Helvetica Neue" font-size="16.00" fill="#000000">db</text>
</g>
<!-- handler&#45;&gt;db -->
<g id="edge2" class="edge">
<title>handler&#45;&gt;db</title>
<path fill="none" stroke="#000000" stroke-dasharray="5,2" d="M69.783,-148.2466C69.783,-140.567 69.783,-131.5792 69.783,-123.1301"/>
<polygon fill="#000000" stroke="#000000" points="73.2831,-122.8552 69.783,-112.8553 66.2831,-122.8553 73.2831,-122.8552"/>
</g>
<!-- main -->
<g id="node2" class="node">
<title>main</title>
<ellipse fill="none" stroke="#000000" cx="69.783" cy="-242.0782" rx="35.6844" ry="19.3093"/>
<text text-anchor="middle" x="69.783" y="-238.8222" font-family="Helvetica Neue" font-size="16.00" fill="#000000">main</text>
</g>
<!-- main&#45;&gt;handler -->
<g id="edge1" class="edge">
<title>main&#45;&gt;handler</title>
<path fill="none" stroke="#000000" d="M69.783,-222.5546C69.783,-214.875 69.783,-205.8872 69.783,-197.4382"/>
<polygon fill="#000000" stroke="#000000" points="73.2831,-197.1633 69.783,-187.1633 66.2831,-197.1634 73.2831,-197.1633"/>
</g>
<!-- config -->
<g id="node4" class="node">
<title>config</title>
<ellipse fill="none" stroke="#000000" cx="69.783" cy="-19.154" rx="42.5565" ry="19.3093"/>
<text text-anchor="middle" x="69.783" y="-15.898" font-family="Helvetica Neue" font-size="16.00" fill="#000000">config</text>
</g>
<!-- db&#45;&gt;config -->
<g id="edge3" class="edge">
<title>db&#45;&gt;config</title>
<path fill="none" stroke="#000000" d="M69.783,-73.9385C69.783,-66.2589 69.783,-57.2711 69.783,-48.8221"/>
<polygon fill="#000000" stroke="#000000" points="73.2831,-48.5472 69.783,-38.5472 66.2831,-48.5472 73.2831,-48.5472"/>
</g>
</g>
</svg>
