<svg width="151pt" height="269pt"
 viewBox="0.00 0.00 151.19 269.23" xmlns="http://www.w3.org/2000/svg" xmlns:xlink="http://www.w3.org/1999/xlink">
<g id="graph0" class="graph" transform="scale(1 1) rotate(0) translate(4 265.2322)">
<title>web</title>
<polygon fill="#ffffff" stroke="transparent" points="-4,4 -4,-265.2322 147.1902,-265.2322 147.1902,4 -4,4"/>
<!-- response -->
<g id="node1" class="node red">
<title>response</title>
<ellipse fill="none" stroke="#000000" cx="63.662" cy="-242.0782" rx="57.6718" ry="19.3093"/>
<text text-anchor="middle" x="63.662" y="-238.8222" font-family="Helvetica Neue" font-size="16.00" fill="#000000">response</text>
</g>
<!-- user -->
<g id="node2" class="node red">
<title>user</title>
<ellipse fill="none" stroke="#000000" cx="63.662" cy="-167.7702" rx="33.2081" ry="19.3093"/>
<text text-anchor="middle" x="63.662" y="-164.5141" font-family="Helvetica Neue" font-size="16.00" fill="#000000">user</text>
</g>
<!-- response&#45;&gt;user -->
<g id="edge1" class="edge red">
<title>response&#45;&gt;user</title>
<path fill="none" stroke="#000000" d="M63.662,-222.5546C63.662,-214.875 63.662,-205.8872 63.662,-197.4382"/>
<polygon fill="#000000" stroke="#000000" points="67.1621,-197.1633 63.662,-187.1633 60.1621,-197.1634 67.1621,-197.1633"/>
</g>
<!-- req -->
<g id="node3" class="node red">
<title>req</title>
<ellipse fill="none" stroke="#000000" cx="27.662" cy="-93.4621" rx="27.825" ry="19.3093"/>
<text text-anchor="middle" x="27.662" y="-90.206" font-family="Helvetica Neue" font-size="16.00" fill="#000000">req</text>
</g>
<!-- user&#45;&gt;req -->
<g id="edge2" class="edge red">
<title>user&#45;&gt;req</title>
<path fill="none" stroke="#000000" d="M54.5777,-149.0191C50.4222,-140.4417 45.4186,-130.1137 40.8587,-120.7015"/>
<polygon fill="#000000" stroke="#000000" points="44.0044,-119.1669 36.4945,-111.6934 37.7047,-122.2189 44.0044,-119.1669"/>
</g>
<!-- db -->
<g id="node4" class="node green">
<title>db</title>
<ellipse fill="none" stroke="#000000" cx="100.662" cy="-93.4621" rx="27" ry="19.3093"/>
<text text-anchor="middle" x="100.662" y="-90.206" font-family="Helvetica Neue" font-size="16.00" fill="#000000">db</text>
</g>
<!-- user&#45;&gt;db -->
<g id="edge3" class="edge green">
<title>user&#45;&gt;db</title>
<path fill="none" stroke="#000000" d="M72.9987,-149.0191C77.2696,-140.4417 82.4122,-130.1137 87.0988,-120.7015"/>
<polygon fill="#000000" stroke="#000000" points="90.2599,-122.2052 91.5842,-111.6934 83.9937,-119.085 90.2599,-122.2052"/>
</g>
<!-- config -->
<g id="node5" class="node">
<title>config</title>
<ellipse fill="none" stroke="#000000" cx="100.662" cy="-19.154" rx="42.5565" ry="19.3093"/>
<text text-anchor="middle" x="100.662" y="-15.898" font-family="Helvetica Neue" font-size="16.00" fill="#000000">config</text>
</g>
<!-- db&#45;&gt;config -->
<g id="edge4" class="edge">
<title>db&#45;&gt;config</title>
<path fill="none" stroke="#000000" d="M100.662,-73.9385C100.662,-66.2589 100.662,-57.2711 100.662,-48.8221"/>
<polygon fill="#000000" stroke="#000000" points="104.1621,-48.5472 100.662,-38.5472 97.1621,-48.5472 104.1621,-48.5472"/>
</g>
</g>
</svg>
