<svg width="141pt" height="269pt"
 viewBox="0.00 0.00 140.85 269.23" xmlns="http://www.w3.org/2000/svg" xmlns:xlink="http://www.w3.org/1999/xlink">
<g id="graph0" class="graph" transform="scale(1 1) rotate(0) translate(4 265.2322)">
<title>web</title>
<polygon fill="#ffffff" stroke="transparent" points="-4,4 -4,-265.2322 136.8456,-265.2322 136.8456,4 -4,4"/>
<!-- main -->
<g id="node1" class="node">
<title>main</title>
<ellipse fill="none" stroke="#000000" cx="66.4228" cy="-242.0782" rx="35.6844" ry="19.3093"/>
<text text-anchor="middle" x="66.4228" y="-238.8222" font-family="Helvetica Neue" font-size="16.00" fill="#000000">main</text>
</g>
<!-- Response -->
<g id="node2" class="node">
<title>Response</title>
<ellipse fill="none" stroke="#000000" cx="66.4228" cy="-167.7702" rx="62.0435" ry="19.3093"/>
<text text-anchor="middle" x="66.4228" y="-164.5141" font-family="Helvetica Neue" font-size="16.00" fill="#000000">Response</text>
</g>
<!-- main&#45;&gt;Response -->
<g id="edge1" class="edge">
<title>main&#45;&gt;Response</title>
<path fill="none" stroke="#000000" d="M66.4228,-222.5546C66.4228,-214.875 66.4228,-205.8872 66.4228,-197.4382"/>
<polygon fill="#000000" stroke="#000000" points="69.9229,-197.1633 66.4228,-187.1633 62.9229,-197.1634 69.9229,-197.1633"/>
</g>
<!-- db -->
<g id="node3" class="node">
<title>db</title>
<ellipse fill="none" stroke="#000000" cx="66.4228" cy="-93.4621" rx="27" ry="19.3093"/>
<text text-anchor="middle" x="66.4228" y="-90.206" font-family="Helvetica Neue" font-size="16.00" fill="#000000">db</text>
</g>
<!-- Response&#45;&gt;db -->
<g id="edge2" class="edge">
<title>Response&#45;&gt;db</title>
<path fill="none" stroke="#000000" stroke-dasharray="5,2" d="M66.4228,-148.2466C66.4228,-140.567 66.4228,-131.5792 66.4228,-123.1301"/>
<polygon fill="#000000" stroke="#000000" points="69.9229,-122.8552 66.4228,-112.8553 62.9229,-122.8553 69.9229,-122.8552"/>
</g>
<!-- connString -->
<g id="node4" class="node">
<title>connString</title>
<ellipse fill="none" stroke="#000000" cx="66.4228" cy="-19.154" rx="66.3457" ry="19.3093"/>
<text text-anchor="middle" x="66.4228" y="-15.898" font-family="Helvetica Neue" font-size="16.00" fill="#000000">connString</text>
</g>
<!-- db&#45;&gt;connString -->
<g id="edge3" class="edge">
<title>db&#45;&gt;connString</title>
<path fill="none" stroke="#000000" d="M66.4228,-73.9385C66.4228,-66.2589 66.4228,-57.2711 66.4228,-48.8221"/>
<polygon fill="#000000" stroke="#000000" points="69.9229,-48.5472 66.4228,-38.5472 62.9229,-48.5472 69.9229,-48.5472"/>
</g>
</g>
</svg>
